<?xml version="1.0" encoding="utf-8"?>
<!-- Generator: Adobe Illustrator 26.4.1, SVG Export Plug-In . SVG Version: 6.00 Build 0)  -->
<svg version="1.1" id="Layer_1" xmlns="http://www.w3.org/2000/svg" xmlns:xlink="http://www.w3.org/1999/xlink" x="0px" y="0px"
	 viewBox="0 0 62 62" style="enable-background:new 0 0 62 62;" xml:space="preserve">
<style type="text/css">
	.st0{fill:#E2E5E7;}
	.st1{fill:#B0B7BD;}
	.st2{fill:#CAD1D8;}
	.st3{fill:#50BEE8;}
	.st4{fill:#FFFFFF;}
	.st5{font-family:'ArialRoundedMTBold';}
	.st6{font-size:14.9626px;}
</style>
<path class="st0" d="M15.5,0c-2.1,0-3.9,1.7-3.9,3.9v54.2c0,2.1,1.7,3.9,3.9,3.9h38.8c2.1,0,3.9-1.7,3.9-3.9V15.5L42.6,0H15.5z"/>
<path class="st1" d="M46.5,15.5h11.6L42.6,0v11.6C42.6,13.8,44.4,15.5,46.5,15.5z"/>
<path class="st2" d="M58.1,27.1L46.5,15.5h11.6V27.1z"/>
<path class="st3" d="M50.4,50.4c0,1.1-0.9,1.9-1.9,1.9H5.8c-1.1,0-1.9-0.9-1.9-1.9V31c0-1.1,0.9-1.9,1.9-1.9h42.6
	c1.1,0,1.9,0.9,1.9,1.9V50.4z"/>
<path class="st2" d="M48.4,52.3H11.6v1.9h36.8c1.1,0,1.9-0.9,1.9-1.9v-1.9C50.4,51.4,49.5,52.3,48.4,52.3z"/>
<g id="Layer_3_00000021090365351718430250000008166487989274706587_">
	<text transform="matrix(1 0 0 1 10.0406 46.132)" class="st4 st5 st6">PNG</text>
</g>
</svg>
